<svg xmlns="http://www.w3.org/2000/svg" viewBox="0 0 135.9 304.58">
  <defs>
    <style>
      .bga {
        fill: #B3B1A4;
        stroke: #B3B1A4;
        stroke-miterlimit: 10;
        stroke-width: 6px;
      }
      .bgb {
        fill: #FCC453;
        stroke: #FCC453;
        stroke-miterlimit: 10;
        stroke-width: 6px;
      }
    </style>
  </defs>
  <title>hex</title>
  <g>
    <path class="bga" d="M68.87,147.43l-53-30.57a12,12,0,0,1-6-10.39V45.32a12,12,0,0,1,6-10.39l53-30.57a12,12,0,0,1,12,0l53,30.57a12,12,0,0,1,6,10.39v61.14a12,12,0,0,1-6,10.39l-53,30.57A12,12,0,0,1,68.87,147.43Z" transform="translate(-6.92 0.25)"/>
  </g>
  <g transform="translate(0, 152.29)">
    <path class="bgb" d="M68.87,147.43l-53-30.57a12,12,0,0,1-6-10.39V45.32a12,12,0,0,1,6-10.39l53-30.57a12,12,0,0,1,12,0l53,30.57a12,12,0,0,1,6,10.39v61.14a12,12,0,0,1-6,10.39l-53,30.57A12,12,0,0,1,68.87,147.43Z" transform="translate(-6.92 0.25)"/>
  </g>
</svg>
